<svg id="linkedin" xmlns="http://www.w3.org/2000/svg" width="29.812" height="30" viewBox="0 0 29.812 30">
  <path id="Exclusão_3" data-name="Exclusão 3" d="M27.608,30H2.2A2.179,2.179,0,0,1,0,27.851V2.149A2.179,2.179,0,0,1,2.2,0H27.608a2.179,2.179,0,0,1,2.2,2.149v25.7A2.179,2.179,0,0,1,27.608,30ZM18.49,14.8a1.984,1.984,0,0,1,1.751.849,3.931,3.931,0,0,1,.53,2.215v7.246h4.5V17.345c0-3.818-1.938-6.1-5.184-6.1a4.5,4.5,0,0,0-4.058,2.236V11.566h-4.5c.056,1.22.006,12.288,0,13.546h4.5V17.548a2.983,2.983,0,0,1,.149-1.1,2.8,2.8,0,0,1,.81-1.127A2.313,2.313,0,0,1,18.49,14.8ZM4.534,11.566V25.113h4.5V11.566Zm2.282-6.53a2.347,2.347,0,1,0-.059,4.681h.029a2.348,2.348,0,1,0,.031-4.681Z" transform="translate(0 0)" fill="white"/>
</svg>
